<?xml version="1.0" encoding="UTF-8"?> <!-- Generator: Adobe Illustrator 23.0.3, SVG Export Plug-In . SVG Version: 6.00 Build 0) --> <svg xmlns="http://www.w3.org/2000/svg" xmlns:xlink="http://www.w3.org/1999/xlink" id="Capa_1" x="0px" y="0px" viewBox="0 0 571 190.2" style="enable-background:new 0 0 571 190.2;" xml:space="preserve"> <style type="text/css"> .st0{fill:#1E1D1A;} </style> <title>only the brave</title> <g> <g> <defs> <path id="SVGID_1_" d="M44.2,33.9v51.3l51.3,51.3l-25.7,25.7L5.7,98.1l0-51.3l12.8-12.8H44.2z M102,130.2l32.1-32.1l0-51.3 l-12.8-12.8H95.6l0,51.3l-19.2,19.3L102,130.2z M249.6,33.9h-38.5l0,38.5h51.3V46.8L249.6,33.9z M163.6,162.3h38.5l0-38.5h-51.3 v25.7L163.6,162.3z M150.8,46.8v25.7l51.3,51.3V33.9h-38.5L150.8,46.8z M262.4,149.4v-25.7l-51.3-51.3v89.8h38.5L262.4,149.4z"></path> </defs> <use xlink:href="#SVGID_1_" style="overflow:visible;fill:#439941;"></use> <clipPath id="SVGID_2_"> <use xlink:href="#SVGID_1_" style="overflow:visible;"></use> </clipPath> </g> <g> <path class="st0" d="M305.6,59.9h7.6v15c0,0.4,0.1,0.8,0.3,1.1l9.6,13.6c0.4,0.5,0.9,0.8,1.5,0.8c0.6,0,1.1-0.3,1.5-0.8l9.6-13.6 c0.2-0.3,0.3-0.7,0.3-1.1v-15h7.6v15c0,2-0.6,4-1.7,5.5L332.6,94c-1.9,2.6-4.9,4.1-7.8,4.1c-3.1,0-6-1.4-7.8-4.1l-9.5-13.6 c-1.1-1.6-1.7-3.5-1.7-5.5V59.9z M359.8,67.6c-1.1,0-1.9,0.9-1.9,1.9v5.7h30.5v7.6h-30.5v5.7c0,1,0.9,1.9,1.9,1.9h28.6v7.6h-28.6 c-5.2,0-9.5-4.3-9.5-9.5V69.5c0-5.2,4.3-9.5,9.5-9.5h28.6v7.6H359.8z M423.5,59.9c5.2,0,9.5,4.3,9.5,9.5v3.8c0,2.1-0.8,4.2-2,5.7 c1.2,1.6,2,3.6,2,5.7v13.4h-7.6V84.7c0-1.1-0.9-1.9-1.9-1.9h-21v15.3h-7.6V59.9H423.5z M402.6,67.6v7.6h21c1,0,1.9-0.9,1.9-1.9 v-3.8c0-1-0.9-1.9-1.9-1.9H402.6z M491.8,88.6c0,1,0.9,1.9,1.9,1.9h19.1c1,0,1.9-0.9,1.9-1.9V59.9h7.6v28.6c0,5.2-4.3,9.5-9.5,9.5 h-19.1c-5.2,0-9.5-4.3-9.5-9.5V59.9h7.6V88.6z M468.2,75.2h-19.1c-1.1,0-1.9-0.9-1.9-1.9v-3.8c0-1,0.9-1.9,1.9-1.9h28.1v-7.6 h-28.1c-5.2,0-9.5,4.3-9.5,9.5v3.8c0,5.2,4.3,9.5,9.5,9.5h19.1c1.1,0,1.9,0.9,1.9,1.9v3.8c0,1-0.9,1.9-1.9,1.9h-26.9v7.6h26.9 c5.2,0,9.5-4.3,9.5-9.5v-3.8C477.7,79.5,473.4,75.2,468.2,75.2z M557.2,75.2h-19.1c-1,0-1.9-0.9-1.9-1.9v-3.8c0-1,0.9-1.9,1.9-1.9 h28.1v-7.6h-28.1c-5.2,0-9.5,4.3-9.5,9.5v3.8c0,5.2,4.3,9.5,9.5,9.5h19.1c1,0,1.9,0.9,1.9,1.9v3.8c0,1-0.9,1.9-1.9,1.9h-26.9v7.6 h26.9c5.2,0,9.5-4.3,9.5-9.5v-3.8C566.7,79.5,562.4,75.2,557.2,75.2z"></path> <g> <defs> <path id="SVGID_3_" d="M380.6,128.7c0-1,0.3-2,0.9-2.9l5-7.1c1-1.4,2.5-2.1,4.1-2.1c1.5,0,3.1,0.8,4.1,2.1l5,7.1 c0.6,0.8,0.9,1.8,0.9,2.9v7.8h-2v-6h-16v6h-2V128.7z M388.1,119.9l-4.9,7c-0.4,0.5-0.5,1.1-0.6,1.6h16c0-0.5-0.2-1-0.5-1.6 l-4.9-7c-0.4-0.5-1.2-1.4-2.5-1.4C389.2,118.5,388.4,119.4,388.1,119.9z M411.1,116.5h2l8,10.3l8-10.3h2v20h-2v-16l-7,8.7h-1.9 l-7-8.7v16h-2V116.5z M446.6,118.5c-1.6,0-3,1.3-3,3v4h18v2h-18v4c0,1.6,1.3,3,3,3h15v2h-15c-2.7,0-5-2.2-5-5v-10 c0-2.7,2.2-5,5-5h15v2H446.6z M487,116.5c2.7,0,5,2.2,5,5v1c0,1.9-1.2,3.4-2.6,4c1.3,0.6,2.6,2.1,2.6,4v6h-2v-6c0-1.6-1.4-3-3-3 h-13v9h-2v-20H487z M474,118.5v7h13c1.6,0,3-1.4,3-3v-1c0-1.6-1.4-3-3-3H474z M358.1,125.5v2h10v4c0,1.6-1.3,3-3,3h-10 c-1.6,0-3-1.3-3-3v-10c0-1.6,1.3-3,3-3h15v-2h-15c-2.7,0-5,2.2-5,5v10c0,2.7,2.2,5,5,5h10c2.7,0,5-2.2,5-5v-6H358.1z M517.5,125.5h-10c-1.7,0-3-1.3-3-3v-1c0-1.6,1.3-3,3-3h15v-2h-15c-2.7,0-5,2.2-5,5v1c0,2.7,2.2,5,5,5h10c1.6,0,3,1.3,3,3v1 c0,1.6-1.3,3-3,3h-15v2h15c2.8,0,5-2.2,5-5v-1C522.5,127.8,520.2,125.5,517.5,125.5z"></path> </defs> <use xlink:href="#SVGID_3_" style="overflow:visible;fill:#439941;"></use> <clipPath id="SVGID_4_"> <use xlink:href="#SVGID_3_" style="overflow:visible;"></use> </clipPath> </g> </g> </g> </svg> 